<?xml version="1.0" encoding="UTF-8" standalone="no"?>
<!DOCTYPE svg PUBLIC "-//W3C//DTD SVG 1.1//EN"
 "http://www.w3.org/Graphics/SVG/1.1/DTD/svg11.dtd">
<!-- Generated by graphviz version 2.43.0 (0)
 -->
<!-- Title: sourcetree Pages: 1 -->
<svg width="403pt" height="260pt"
 viewBox="0.00 0.00 402.50 260.00" xmlns="http://www.w3.org/2000/svg" xmlns:xlink="http://www.w3.org/1999/xlink">
<g id="graph0" class="graph" transform="scale(1 1) rotate(0) translate(4 256)">
<title>sourcetree</title>
<polygon fill="white" stroke="transparent" points="-4,4 -4,-256 398.5,-256 398.5,4 -4,4"/>
<!-- mulle&#45;concurrent -->
<g id="node1" class="node">
<title>mulle&#45;concurrent</title>
<polygon fill="yellow" stroke="black" points="274,-252 135,-252 135,-216 274,-216 274,-252"/>
<text text-anchor="middle" x="204.5" y="-230.3" font-family="Times,serif" font-size="14.00">mulle&#45;concurrent</text>
</g>
<!-- mulle&#45;aba -->
<g id="node3" class="node">
<title>mulle&#45;aba</title>
<g id="a_node3"><a xlink:href="https://github.com/mulle-concurrent/mulle-aba" xlink:title="mulle&#45;aba">
<polygon fill="lightgrey" stroke="black" points="247.5,-180 161.5,-180 161.5,-144 247.5,-144 247.5,-180"/>
<text text-anchor="middle" x="204.5" y="-158.3" font-family="Times,serif" font-size="14.00">mulle&#45;aba</text>
</a>
</g>
</g>
<!-- mulle&#45;concurrent&#45;&gt;mulle&#45;aba -->
<g id="edge5" class="edge">
<title>mulle&#45;concurrent&#45;&gt;mulle&#45;aba</title>
<path fill="none" stroke="black" d="M204.5,-215.7C204.5,-207.98 204.5,-198.71 204.5,-190.11"/>
<polygon fill="black" stroke="black" points="208,-190.1 204.5,-180.1 201,-190.1 208,-190.1"/>
</g>
<!-- mintomic -->
<g id="node2" class="node">
<title>mintomic</title>
<g id="a_node2"><a xlink:href="https://github.com/mulle-concurrent/mintomic" xlink:title="mintomic">
<polygon fill="lightgrey" stroke="black" points="382,-36 299,-36 299,0 382,0 382,-36"/>
<text text-anchor="middle" x="340.5" y="-14.3" font-family="Times,serif" font-size="14.00">mintomic</text>
</a>
</g>
</g>
<!-- mulle&#45;allocator -->
<g id="node4" class="node">
<title>mulle&#45;allocator</title>
<g id="a_node4"><a xlink:href="https://github.com/mulle-c/mulle-allocator" xlink:title="mulle&#45;allocator">
<polygon fill="lightgrey" stroke="black" points="123,-108 0,-108 0,-72 123,-72 123,-108"/>
<text text-anchor="middle" x="61.5" y="-86.3" font-family="Times,serif" font-size="14.00">mulle&#45;allocator</text>
</a>
</g>
</g>
<!-- mulle&#45;aba&#45;&gt;mulle&#45;allocator -->
<g id="edge1" class="edge">
<title>mulle&#45;aba&#45;&gt;mulle&#45;allocator</title>
<path fill="none" stroke="black" d="M169.52,-143.88C150.3,-134.47 126.27,-122.71 105.76,-112.67"/>
<polygon fill="black" stroke="black" points="107.14,-109.44 96.62,-108.19 104.06,-115.73 107.14,-109.44"/>
</g>
<!-- mulle&#45;linkedlist -->
<g id="node5" class="node">
<title>mulle&#45;linkedlist</title>
<g id="a_node5"><a xlink:href="https://github.com/mulle-concurrent/mulle-linkedlist" xlink:title="mulle&#45;linkedlist">
<polygon fill="lightgrey" stroke="black" points="268,-108 141,-108 141,-72 268,-72 268,-108"/>
<text text-anchor="middle" x="204.5" y="-86.3" font-family="Times,serif" font-size="14.00">mulle&#45;linkedlist</text>
</a>
</g>
</g>
<!-- mulle&#45;aba&#45;&gt;mulle&#45;linkedlist -->
<g id="edge2" class="edge">
<title>mulle&#45;aba&#45;&gt;mulle&#45;linkedlist</title>
<path fill="none" stroke="black" d="M204.5,-143.7C204.5,-135.98 204.5,-126.71 204.5,-118.11"/>
<polygon fill="black" stroke="black" points="208,-118.1 204.5,-108.1 201,-118.1 208,-118.1"/>
</g>
<!-- mulle&#45;thread -->
<g id="node6" class="node">
<title>mulle&#45;thread</title>
<g id="a_node6"><a xlink:href="https://github.com/mulle-concurrent/mulle-thread" xlink:title="mulle&#45;thread">
<polygon fill="lightgrey" stroke="black" points="394.5,-108 286.5,-108 286.5,-72 394.5,-72 394.5,-108"/>
<text text-anchor="middle" x="340.5" y="-86.3" font-family="Times,serif" font-size="14.00">mulle&#45;thread</text>
</a>
</g>
</g>
<!-- mulle&#45;aba&#45;&gt;mulle&#45;thread -->
<g id="edge3" class="edge">
<title>mulle&#45;aba&#45;&gt;mulle&#45;thread</title>
<path fill="none" stroke="black" d="M237.77,-143.88C255.96,-134.51 278.69,-122.81 298.14,-112.8"/>
<polygon fill="black" stroke="black" points="299.81,-115.88 307.1,-108.19 296.61,-109.65 299.81,-115.88"/>
</g>
<!-- mulle&#45;c11 -->
<g id="node7" class="node">
<title>mulle&#45;c11</title>
<g id="a_node7"><a xlink:href="https://github.com/mulle-c/mulle-c11" xlink:title="mulle&#45;c11">
<polygon fill="lightgrey" stroke="black" points="104.5,-36 18.5,-36 18.5,0 104.5,0 104.5,-36"/>
<text text-anchor="middle" x="61.5" y="-14.3" font-family="Times,serif" font-size="14.00">mulle&#45;c11</text>
</a>
</g>
</g>
<!-- mulle&#45;allocator&#45;&gt;mulle&#45;c11 -->
<g id="edge4" class="edge">
<title>mulle&#45;allocator&#45;&gt;mulle&#45;c11</title>
<path fill="none" stroke="black" d="M61.5,-71.7C61.5,-63.98 61.5,-54.71 61.5,-46.11"/>
<polygon fill="black" stroke="black" points="65,-46.1 61.5,-36.1 58,-46.1 65,-46.1"/>
</g>
<!-- mulle&#45;thread&#45;&gt;mintomic -->
<g id="edge6" class="edge">
<title>mulle&#45;thread&#45;&gt;mintomic</title>
<path fill="none" stroke="black" d="M340.5,-71.7C340.5,-63.98 340.5,-54.71 340.5,-46.11"/>
<polygon fill="black" stroke="black" points="344,-46.1 340.5,-36.1 337,-46.1 344,-46.1"/>
</g>
</g>
</svg>
