<?xml version="1.0" encoding="UTF-8" standalone="no"?>
<!DOCTYPE svg PUBLIC "-//W3C//DTD SVG 1.1//EN"
 "http://www.w3.org/Graphics/SVG/1.1/DTD/svg11.dtd">
<!-- Generated by graphviz version 2.43.0 (0)
 -->
<!-- Title: sourcetree Pages: 1 -->
<svg width="258pt" height="260pt"
 viewBox="0.00 0.00 257.50 260.00" xmlns="http://www.w3.org/2000/svg" xmlns:xlink="http://www.w3.org/1999/xlink">
<g id="graph0" class="graph" transform="scale(1 1) rotate(0) translate(4 256)">
<title>sourcetree</title>
<polygon fill="white" stroke="transparent" points="-4,4 -4,-256 253.5,-256 253.5,4 -4,4"/>
<!-- mulle&#45;concurrent -->
<g id="node1" class="node">
<title>mulle&#45;concurrent</title>
<polygon fill="yellow" stroke="black" points="198,-252 59,-252 59,-216 198,-216 198,-252"/>
<text text-anchor="middle" x="128.5" y="-230.3" font-family="Times,serif" font-size="14.00">mulle&#45;concurrent</text>
</g>
<!-- mulle&#45;aba -->
<g id="node2" class="node">
<title>mulle&#45;aba</title>
<polygon fill="lightgrey" stroke="black" points="171.5,-180 85.5,-180 85.5,-144 171.5,-144 171.5,-180"/>
<text text-anchor="middle" x="128.5" y="-158.3" font-family="Times,serif" font-size="14.00">mulle&#45;aba</text>
</g>
<!-- mulle&#45;concurrent&#45;&gt;mulle&#45;aba -->
<g id="edge4" class="edge">
<title>mulle&#45;concurrent&#45;&gt;mulle&#45;aba</title>
<path fill="none" stroke="black" d="M128.5,-215.7C128.5,-207.98 128.5,-198.71 128.5,-190.11"/>
<polygon fill="black" stroke="black" points="132,-190.1 128.5,-180.1 125,-190.1 132,-190.1"/>
</g>
<!-- mulle&#45;allocator -->
<g id="node3" class="node">
<title>mulle&#45;allocator</title>
<polygon fill="lightgrey" stroke="black" points="123,-108 0,-108 0,-72 123,-72 123,-108"/>
<text text-anchor="middle" x="61.5" y="-86.3" font-family="Times,serif" font-size="14.00">mulle&#45;allocator</text>
</g>
<!-- mulle&#45;aba&#45;&gt;mulle&#45;allocator -->
<g id="edge1" class="edge">
<title>mulle&#45;aba&#45;&gt;mulle&#45;allocator</title>
<path fill="none" stroke="black" d="M111.94,-143.7C103.82,-135.22 93.91,-124.86 85.03,-115.58"/>
<polygon fill="black" stroke="black" points="87.31,-112.91 77.87,-108.1 82.26,-117.75 87.31,-112.91"/>
</g>
<!-- mulle&#45;thread -->
<g id="node4" class="node">
<title>mulle&#45;thread</title>
<polygon fill="lightgrey" stroke="black" points="249.5,-108 141.5,-108 141.5,-72 249.5,-72 249.5,-108"/>
<text text-anchor="middle" x="195.5" y="-86.3" font-family="Times,serif" font-size="14.00">mulle&#45;thread</text>
</g>
<!-- mulle&#45;aba&#45;&gt;mulle&#45;thread -->
<g id="edge2" class="edge">
<title>mulle&#45;aba&#45;&gt;mulle&#45;thread</title>
<path fill="none" stroke="black" d="M145.06,-143.7C153.18,-135.22 163.09,-124.86 171.97,-115.58"/>
<polygon fill="black" stroke="black" points="174.74,-117.75 179.13,-108.1 169.69,-112.91 174.74,-117.75"/>
</g>
<!-- mulle&#45;c11 -->
<g id="node5" class="node">
<title>mulle&#45;c11</title>
<polygon fill="lightgrey" stroke="black" points="104.5,-36 18.5,-36 18.5,0 104.5,0 104.5,-36"/>
<text text-anchor="middle" x="61.5" y="-14.3" font-family="Times,serif" font-size="14.00">mulle&#45;c11</text>
</g>
<!-- mulle&#45;allocator&#45;&gt;mulle&#45;c11 -->
<g id="edge3" class="edge">
<title>mulle&#45;allocator&#45;&gt;mulle&#45;c11</title>
<path fill="none" stroke="black" d="M61.5,-71.7C61.5,-63.98 61.5,-54.71 61.5,-46.11"/>
<polygon fill="black" stroke="black" points="65,-46.1 61.5,-36.1 58,-46.1 65,-46.1"/>
</g>
<!-- mintomic -->
<g id="node6" class="node">
<title>mintomic</title>
<polygon fill="lightgrey" stroke="black" points="237,-36 154,-36 154,0 237,0 237,-36"/>
<text text-anchor="middle" x="195.5" y="-14.3" font-family="Times,serif" font-size="14.00">mintomic</text>
</g>
<!-- mulle&#45;thread&#45;&gt;mintomic -->
<g id="edge5" class="edge">
<title>mulle&#45;thread&#45;&gt;mintomic</title>
<path fill="none" stroke="black" d="M195.5,-71.7C195.5,-63.98 195.5,-54.71 195.5,-46.11"/>
<polygon fill="black" stroke="black" points="199,-46.1 195.5,-36.1 192,-46.1 199,-46.1"/>
</g>
</g>
</svg>
